<svg width="73" height="52" viewBox="0 0 73 52" fill="none" xmlns="http://www.w3.org/2000/svg">
<g clip-path="url(#clip0_1290_28534)">
<path d="M32.9794 32.0377C34.5311 32.0377 35.9967 32.4094 36.0925 32.4379V35.1257C36.0446 35.1066 34.7036 34.7444 33.5924 34.7444C32.3088 34.7444 31.6191 35.1733 31.6191 35.7738C31.6191 36.5363 32.5579 36.8031 33.0847 36.9746L33.966 37.2511C36.035 37.9087 36.9833 39.3193 36.9833 40.8442C36.9833 43.999 34.1863 45.0664 31.7437 45.0664C30.0482 45.0664 28.4581 44.7519 28.2953 44.7233V41.8354C28.573 41.9021 29.9141 42.3025 31.3126 42.3025C32.9027 42.3025 33.6307 41.8449 33.6307 41.1301C33.6307 40.4916 32.9985 40.1294 32.2034 39.8816C32.0119 39.8149 31.715 39.7291 31.5233 39.6624C29.7417 39.1 28.2665 38.0707 28.2665 35.9834C28.2665 33.6198 30.0386 32.0377 32.9794 32.0377ZM59.7621 32.0377C63.6511 32.0377 66.4482 34.9541 66.4482 38.5473C66.4482 42.1404 63.6511 45.0569 59.7621 45.0569C55.873 45.0569 53.0856 42.1404 53.0856 38.5473C53.0856 34.9541 55.873 32.0377 59.7621 32.0377ZM13.4862 32.0377C14.9901 32.0377 16.1013 32.3998 16.3982 32.4856V35.8596C16.2737 35.7928 15.2391 35.1923 13.7161 35.1923C11.647 35.1923 10.2198 36.622 10.2198 38.5473C10.2198 40.4153 11.5896 41.9021 13.7161 41.9021C15.22 41.9021 16.2641 41.3113 16.3982 41.235V44.6089C16.0054 44.7233 14.9134 45.0569 13.4862 45.0569C9.89412 45.0569 6.7522 42.5979 6.7522 38.5473C6.7522 34.7921 9.60674 32.0377 13.4862 32.0377ZM46.8113 32.0377C48.3153 32.0377 49.4264 32.3998 49.7234 32.4856V35.8596C49.5988 35.7928 48.5643 35.1923 47.0413 35.1923C44.9722 35.1923 43.545 36.622 43.545 38.5473C43.545 40.4153 44.9147 41.9021 47.0413 41.9021C48.5451 41.9021 49.5893 41.3113 49.7234 41.235V44.6089C49.321 44.7233 48.2386 45.0569 46.8113 45.0569C43.2193 45.0569 40.0774 42.5979 40.0774 38.5473C40.0774 34.7921 42.9223 32.0377 46.8113 32.0377ZM23.9847 32.2664V44.8377H20.795V32.2664H23.9847ZM59.7621 35.24C57.8654 35.24 56.467 36.7173 56.467 38.5473C56.467 40.3773 57.875 41.8545 59.7621 41.8545C61.6491 41.8545 63.0668 40.3773 63.0668 38.5473C63.0668 36.7268 61.6587 35.24 59.7621 35.24ZM19.1953 6.93311C20.067 6.93311 20.7758 7.6384 20.7758 8.50572V25.1944C20.7758 26.0617 20.067 26.767 19.1953 26.767C18.3236 26.767 17.6147 26.0617 17.6147 25.1944V8.50572C17.6147 7.6384 18.3236 6.93311 19.1953 6.93311ZM54.0051 26.767C53.1334 26.767 52.4246 26.0617 52.4246 25.1944V8.50572C52.4246 7.6384 53.1334 6.93311 54.0051 6.93311C54.8768 6.93311 55.5857 7.6384 55.5857 8.50572V25.1944C55.5857 26.0617 54.8768 26.767 54.0051 26.767ZM10.488 12.8614C11.3597 12.8614 12.0685 13.5666 12.0685 14.434V22.0682C12.0685 22.9356 11.3597 23.6409 10.488 23.6409C9.61627 23.6409 8.90742 22.9356 8.90742 22.0682V14.4244C8.90742 13.5571 9.61627 12.8614 10.488 12.8614ZM1.78072 17.1884C2.6524 17.1884 3.36125 17.8937 3.36125 18.761V22.0587C3.36125 22.9261 2.6524 23.6313 1.78072 23.6313C0.909038 23.6313 0.200195 22.9261 0.200195 22.0587V18.761C0.200195 17.8937 0.909038 17.1884 1.78072 17.1884ZM27.9025 12.8614C28.7742 12.8614 29.483 13.5666 29.483 14.434V22.0682C29.483 22.9356 28.7742 23.6409 27.9025 23.6409C27.0308 23.6409 26.322 22.9356 26.322 22.0682V14.4244C26.3124 13.5571 27.0308 12.8614 27.9025 12.8614ZM36.5906 23.6313C35.719 23.6313 35.0101 22.9261 35.0101 22.0587V18.761C35.0101 17.8937 35.719 17.1884 36.5906 17.1884H36.6002C37.4719 17.1884 38.1807 17.8937 38.1807 18.761V22.0587C38.1807 22.9261 37.4719 23.6313 36.6002 23.6313H36.5906ZM62.7124 12.8614C63.5841 12.8614 64.293 13.5666 64.293 14.434V22.0682C64.293 22.9356 63.5841 23.6409 62.7124 23.6409C61.8407 23.6409 61.1319 22.9356 61.1319 22.0682V14.4244C61.1223 13.5571 61.8407 12.8614 62.7124 12.8614ZM71.4197 17.1884C72.2914 17.1884 73.0002 17.8937 73.0002 18.761V22.0587C73.0002 22.9261 72.2914 23.6313 71.4197 23.6313C70.548 23.6313 69.8391 22.9261 69.8391 22.0587V18.761C69.8296 17.8937 70.5384 17.1884 71.4197 17.1884ZM45.2979 12.8614C46.1696 12.8614 46.8784 13.5666 46.8784 14.434V22.0682C46.8784 22.9356 46.1696 23.6409 45.2979 23.6409C44.4262 23.6409 43.7174 22.9356 43.7174 22.0682V14.4244C43.7174 13.5571 44.4262 12.8614 45.2979 12.8614Z" fill="#707183"/>
</g>
<defs>
<clipPath id="clip0_1290_28534">
<rect width="72.8" height="52" fill="white" transform="translate(0.200195)"/>
</clipPath>
</defs>
</svg>
