<svg width="119" height="52" viewBox="0 0 119 52" fill="none" xmlns="http://www.w3.org/2000/svg">
<g clip-path="url(#clip0_1290_28522)">
<path d="M67.832 20.7144C67.832 22.3289 69.2447 22.8014 72.2505 23.4413C76.4185 24.3273 79.825 25.3019 79.8751 29.5941C79.8751 33.6304 76.5488 35.8847 71.99 35.8847C66.4994 35.8847 63.3735 33.4925 63.2332 29.2889H67.2609C67.5414 31.6811 68.9342 32.6262 71.8197 32.6262C73.9137 32.6262 75.7573 31.9075 75.7573 30.0666C75.7573 28.1543 73.896 27.7391 70.9115 27.0733L70.7376 27.0345C67.1006 26.2174 63.7843 25.2921 63.7843 21.1279C63.7843 17.1999 67.1007 15.1621 71.5492 15.1621C75.9977 15.1621 78.9133 17.2787 79.3141 21.1475H75.3665C75.0158 19.2968 73.5129 18.3714 71.489 18.3714C69.2848 18.3714 67.832 19.3263 67.832 20.7144Z" fill="#707183"/>
<path fill-rule="evenodd" clip-rule="evenodd" d="M8.85937 15.5273H0.333008V35.4427H8.51872C10.6829 35.5313 12.817 34.852 14.5203 33.5231C16.6443 31.7708 17.7565 28.9355 17.7565 25.6966C17.7565 19.8195 14.2698 15.5273 8.85937 15.5273ZM13.5884 25.7262C13.5884 29.6542 12.0855 31.9676 8.23818 31.9676L4.4409 31.9873V19.0024H8.34839C11.8351 19.0024 13.5884 21.7983 13.5884 25.7262Z" fill="#707183"/>
<path fill-rule="evenodd" clip-rule="evenodd" d="M25.972 20.8525C21.7739 20.8525 18.3774 24.1898 18.3774 28.3146C18.3774 32.597 21.4634 35.8654 25.972 35.8654C30.4807 35.8654 33.5666 32.5773 33.5666 28.3146C33.5666 24.1898 30.1701 20.8525 25.972 20.8525ZM25.9921 23.6385C28.3465 23.6385 29.6791 25.5385 29.6791 28.3146H29.6591C29.6591 31.1006 28.3766 32.9613 25.9921 32.9613C23.6074 32.9613 22.305 31.1006 22.305 28.3146C22.305 25.5286 23.6375 23.6385 25.9921 23.6385Z" fill="#707183"/>
<path d="M34.3579 28.314C34.3579 24.0514 37.1933 20.8027 41.6018 20.8027C45.369 20.8027 47.6935 22.9488 48.2045 26.04H44.4272C44.2168 24.7602 43.0846 23.825 41.7621 23.8446C39.4376 23.8446 38.2353 25.597 38.2353 28.3535C38.2353 31.1099 39.3475 32.8622 41.692 32.8622C43.1748 32.9804 44.4773 31.8975 44.6075 30.4405H48.3247C48.0742 33.4824 45.6596 35.9041 41.7721 35.9041C37.2133 35.8648 34.3579 32.5964 34.3579 28.314Z" fill="#707183"/>
<path d="M58.5552 33.7779V35.4416H62.2623V21.1475H58.4149V29.3972C58.4149 31.2971 57.3028 32.6261 55.4893 32.6261C53.8561 32.6261 53.0846 31.7105 53.0846 30.037V21.1573H49.2573V30.6966C49.2573 33.8173 51.0707 35.8551 54.307 35.8551C55.9702 35.9437 57.5632 35.1562 58.475 33.7779H58.5552Z" fill="#707183"/>
<path d="M81.0381 15.6152H84.8855V19.1592H81.0381V15.6152Z" fill="#707183"/>
<path d="M81.0381 21.1675H84.8855V35.442H81.0381V21.1675Z" fill="#707183"/>
<path fill-rule="evenodd" clip-rule="evenodd" d="M90.3457 35.8653H86.4981C86.8888 38.6414 89.3239 40.315 93.2915 40.2953C95.4452 40.2953 97.3189 39.7932 98.5314 38.6808C99.7334 37.5585 100.364 35.9637 100.265 34.3394V21.1478H96.5476V22.6934H96.4869C95.5656 21.4431 94.0524 20.7245 92.4699 20.8032C88.7926 20.8032 86.2075 23.4416 86.2075 27.7534C86.2075 32.0653 89.3733 34.5757 92.6094 34.5757C94.0724 34.6347 95.4755 34.0145 96.4072 32.9021H96.4869V34.4772C96.4869 36.4264 95.4452 37.4502 93.2612 37.4502C91.4776 37.4502 90.656 36.7512 90.3457 35.8653ZM93.2412 23.8058C95.5552 23.8058 96.6975 25.5975 96.6975 27.6746C96.6975 29.8208 95.6757 31.5435 93.2707 31.5534C91.2869 31.5534 89.9852 30.0964 89.9852 27.7042C89.9852 25.312 91.2869 23.8058 93.2412 23.8058Z" fill="#707183"/>
<path d="M105.685 23.1069H105.766C106.647 21.6007 108.31 20.695 110.074 20.7639C113.08 20.7639 115.094 22.9888 115.094 26.1094V35.442H111.236V26.6805C111.236 25.1448 110.334 24.0619 108.712 24.0619C107.088 24.0619 105.755 25.4007 105.755 27.3499V35.4518H101.908V21.1577H105.676L105.685 23.1069Z" fill="#707183"/>
<path fill-rule="evenodd" clip-rule="evenodd" d="M116.626 21.4923H116.135L116.146 23.0182H116.436V22.4472H116.696L117.007 23.0182H117.337L116.987 22.398C117.177 22.3487 117.308 22.1715 117.297 21.9747C117.297 21.827 117.227 21.6892 117.117 21.6006C116.966 21.512 116.797 21.4726 116.626 21.4923ZM116.426 22.2208V21.7384L116.566 21.7778C116.667 21.7581 116.777 21.7581 116.876 21.7778C116.957 21.8171 116.997 21.8959 116.997 21.9845C116.997 22.0534 116.966 22.1125 116.917 22.1617C116.867 22.2109 116.797 22.2306 116.726 22.2208H116.426Z" fill="#707183"/>
<path fill-rule="evenodd" clip-rule="evenodd" d="M116.666 23.7961C115.825 23.7961 115.133 23.1267 115.133 22.2899C115.133 21.4531 115.815 20.7837 116.666 20.7837C117.518 20.7837 118.2 21.4531 118.2 22.2899C118.2 23.1267 117.508 23.7961 116.666 23.7961ZM116.666 21.02C115.955 21.02 115.374 21.5909 115.374 22.2899C115.374 22.9888 115.955 23.5599 116.666 23.5599C117.378 23.5599 117.96 22.9888 117.96 22.2899C117.96 21.9552 117.819 21.6303 117.578 21.394C117.338 21.1578 117.007 21.02 116.666 21.02Z" fill="#707183"/>
</g>
<defs>
<clipPath id="clip0_1290_28522">
<rect width="117.867" height="52" fill="white" transform="translate(0.333008)"/>
</clipPath>
</defs>
</svg>
