<svg width="125" height="52" viewBox="0 0 125 52" fill="none" xmlns="http://www.w3.org/2000/svg">
<g clip-path="url(#clip0_1290_28536)">
<path d="M26.6592 14.7334H13.9911V27.0883H26.6592V14.7334Z" fill="#707183"/>
<path d="M0 14.7339H12.6681V27.0889H0V14.7339Z" fill="#707183"/>
<path d="M44.0598 29.7082L43.3158 31.764H43.2538C43.1297 31.3005 42.9024 30.5951 42.5304 29.7485L38.542 19.9734H34.6362V35.5531H37.2194V25.9393C37.2194 25.3346 37.2194 24.6493 37.1987 23.8028C37.1841 23.5022 37.1589 23.2524 37.1382 23.0463L37.138 23.0443C37.1297 22.9611 37.122 22.8847 37.1161 22.8152H37.1781C37.3021 23.4199 37.4467 23.8633 37.55 24.1455L42.3445 35.5128H44.1631L48.9161 24.0447C48.9952 23.8443 49.0742 23.4908 49.1532 23.1373C49.1775 23.0285 49.2019 22.9196 49.2261 22.8152H49.2881C49.2261 23.9641 49.1848 24.992 49.1642 25.6168V35.4927H51.9126V19.9331H48.1516L44.0598 29.7082Z" fill="#707183"/>
<path d="M54.5161 24.3267H57.2027V35.4925H54.5161V24.3267Z" fill="#707183"/>
<path d="M55.88 19.6104C55.4253 19.6104 55.0534 19.7716 54.7433 20.0538C54.4333 20.3359 54.2681 20.6987 54.2681 21.1421C54.2681 21.5654 54.4333 21.9282 54.7433 22.2103C55.0534 22.4925 55.4253 22.6336 55.88 22.6336C56.3346 22.6336 56.7272 22.4723 57.0166 22.2103C57.3265 21.9282 57.4919 21.5654 57.4919 21.1421C57.4919 20.7189 57.3265 20.3561 57.0166 20.0538C56.7479 19.7716 56.3553 19.6104 55.88 19.6104Z" fill="#707183"/>
<path d="M66.73 24.2262C66.234 24.1254 65.7173 24.0649 65.2213 24.0649C64.002 24.0649 62.8861 24.327 61.9562 24.851C61.0263 25.375 60.2823 26.1007 59.8069 27.0076C59.3109 27.9347 59.063 29.0029 59.063 30.2324C59.063 31.3006 59.3109 32.2478 59.7863 33.1145C60.2616 33.961 60.9229 34.6462 61.8115 35.1098C62.6588 35.5734 63.6508 35.8153 64.7667 35.8153C66.048 35.8153 67.1433 35.5532 68.0112 35.0695L68.0319 35.0493V32.6308L67.9286 32.7114C67.5359 32.9936 67.0812 33.2354 66.6266 33.3765C66.1513 33.5378 65.7173 33.6184 65.3454 33.6184C64.2707 33.6184 63.4234 33.3161 62.8241 32.6509C62.2041 32.0059 61.8942 31.1192 61.8942 30.0106C61.8942 28.8619 62.2041 27.9549 62.8448 27.2897C63.4854 26.6246 64.3328 26.282 65.366 26.282C66.234 26.282 67.1226 26.5641 67.9286 27.1285L68.0319 27.2091V24.6494L68.0112 24.6293L67.9806 24.617C67.637 24.4789 67.2517 24.3241 66.73 24.2262Z" fill="#707183"/>
<path d="M75.5947 24.1455C74.9334 24.1455 74.3134 24.347 73.7761 24.7703C73.3214 25.1331 73.0114 25.6571 72.7429 26.2818H72.7221V24.3269H70.0356V35.4927H72.7221V29.7888C72.7221 28.8214 72.9288 28.0152 73.3835 27.4307C73.8381 26.8261 74.4167 26.5237 75.1193 26.5237C75.2847 26.5237 75.45 26.5506 75.6337 26.5805C75.7256 26.5954 75.822 26.6111 75.9253 26.6245C76.2146 26.7051 76.4213 26.7857 76.566 26.8865L76.6693 26.9671V24.347L76.6073 24.3269C76.4213 24.2059 76.0493 24.1455 75.5947 24.1455Z" fill="#707183"/>
<path fill-rule="evenodd" clip-rule="evenodd" d="M82.9103 24.085C81.0297 24.085 79.5211 24.6291 78.4672 25.6973C77.3926 26.7656 76.876 28.2368 76.876 30.0911C76.876 31.8244 77.4132 33.2352 78.4466 34.2632C79.4798 35.2709 80.8851 35.7949 82.6417 35.7949C84.4809 35.7949 85.9482 35.2508 87.0025 34.1624C88.0771 33.074 88.5937 31.6229 88.5937 29.8291C88.5937 28.0554 88.0971 26.6447 87.0848 25.6167C86.1134 24.5888 84.6875 24.085 82.9103 24.085ZM85.0595 32.6709C84.5636 33.2957 83.7783 33.598 82.807 33.598C81.8356 33.598 81.0504 33.2957 80.4924 32.6306C79.9344 32.0058 79.6658 31.0988 79.6658 29.95C79.6658 28.7609 79.9552 27.8539 80.4924 27.2089C81.0504 26.564 81.815 26.2415 82.7863 26.2415C83.7369 26.2415 84.4809 26.5439 85.0182 27.1686C85.5555 27.7934 85.8449 28.7004 85.8449 29.8896C85.8035 31.0988 85.5762 32.0462 85.0595 32.6709Z" fill="#707183"/>
<path d="M94.5871 28.9626C93.7395 28.62 93.2022 28.358 92.9543 28.1363C92.7472 27.9347 92.6441 27.6525 92.6441 27.2897C92.6441 26.9874 92.768 26.6851 93.0783 26.4835C93.3885 26.282 93.7395 26.1813 94.2561 26.1813C94.7111 26.1813 95.186 26.2619 95.641 26.3828C96.0951 26.5037 96.5085 26.6851 96.8396 26.9269L96.9427 27.0076V24.5487L96.8803 24.5285C96.5709 24.4076 96.1575 24.2866 95.6618 24.1859C95.1652 24.1052 94.7111 24.0649 94.3393 24.0649C93.0575 24.0649 92.0036 24.3673 91.1768 25.0324C90.35 25.6572 89.9574 26.5037 89.9574 27.4913C89.9574 28.0153 90.0406 28.4789 90.2261 28.8619C90.4124 29.2447 90.6811 29.6075 91.0529 29.9099C91.4247 30.192 91.962 30.5145 92.7065 30.8169C93.3261 31.0789 93.8019 31.2804 94.0905 31.4417C94.38 31.6029 94.5663 31.7843 94.7111 31.9253C94.8142 32.0866 94.8766 32.2881 94.8766 32.5501C94.8766 33.2959 94.2977 33.6587 93.1199 33.6587C92.6649 33.6587 92.1899 33.5781 91.6318 33.3967C91.0737 33.2153 90.5571 32.9533 90.1229 32.6509L90.0198 32.5703V35.13L90.0813 35.1501C90.4748 35.3315 90.9497 35.4525 91.5287 35.5935C92.1067 35.6943 92.6233 35.7749 93.0783 35.7749C94.4632 35.7749 95.5994 35.4726 96.4054 34.8075C97.2322 34.1626 97.6664 33.3362 97.6664 32.268C97.6664 31.5223 97.4593 30.8572 97.0051 30.3533C96.4054 29.8696 95.6618 29.3657 94.5871 28.9626Z" fill="#707183"/>
<path fill-rule="evenodd" clip-rule="evenodd" d="M104.754 24.085C102.874 24.085 101.365 24.6291 100.312 25.6973C99.2577 26.7656 98.7203 28.2368 98.7203 30.0911C98.7203 31.8244 99.2577 33.2352 100.291 34.2632C101.324 35.2709 102.73 35.7949 104.485 35.7949C106.325 35.7949 107.793 35.2508 108.846 34.1624C109.921 33.074 110.438 31.6229 110.438 29.8291C110.438 28.0554 109.941 26.6447 108.929 25.6167C107.957 24.5888 106.532 24.085 104.754 24.085ZM106.883 32.6709C106.387 33.2957 105.602 33.598 104.63 33.598C103.639 33.598 102.874 33.2957 102.316 32.6306C101.758 32.0058 101.489 31.0988 101.489 29.95C101.489 28.7609 101.779 27.8539 102.316 27.2089C102.874 26.564 103.639 26.2415 104.609 26.2415C105.539 26.2415 106.305 26.5439 106.842 27.1686C107.379 27.7934 107.669 28.7004 107.669 29.8896C107.669 31.0988 107.4 32.0462 106.883 32.6709Z" fill="#707183"/>
<path d="M124.8 26.4833V24.3268H122.093V21.0214L122.01 21.0415L119.448 21.7873L119.386 21.8074V24.3268H115.335V22.9159C115.335 22.271 115.501 21.7671 115.79 21.4446C116.079 21.1221 116.513 20.9609 117.05 20.9609C117.422 20.9609 117.815 21.0415 118.249 21.2229L118.352 21.2834V19.0059L118.291 18.9857C117.919 18.8648 117.422 18.7842 116.782 18.7842C115.976 18.7842 115.273 18.9656 114.632 19.2679C113.992 19.6105 113.517 20.0741 113.165 20.6989C112.814 21.3035 112.628 21.9888 112.628 22.7748V24.3268H110.747V26.4632H112.628V35.4926H115.335V26.4833H119.386V32.2275C119.386 34.5856 120.522 35.7747 122.796 35.7747C123.167 35.7747 123.56 35.7143 123.933 35.6538C124.325 35.5732 124.614 35.4724 124.779 35.3918L124.8 35.3716V33.2151L124.697 33.2957C124.532 33.3965 124.387 33.4771 124.139 33.5376C123.933 33.598 123.746 33.6182 123.602 33.6182C123.064 33.6182 122.692 33.4973 122.424 33.1949C122.176 32.9127 122.052 32.4492 122.052 31.7639V26.4833H124.8Z" fill="#707183"/>
<path d="M0 28.3784H12.6681V40.7334H0V28.3784Z" fill="#707183"/>
<path d="M26.6592 28.3784H13.9911V40.7334H26.6592V28.3784Z" fill="#707183"/>
</g>
<defs>
<clipPath id="clip0_1290_28536">
<rect width="124.8" height="52" fill="white"/>
</clipPath>
</defs>
</svg>
