<svg width="97" height="52" viewBox="0 0 97 52" fill="none" xmlns="http://www.w3.org/2000/svg">
<g clip-path="url(#clip0_1290_28551)">
<path d="M74.897 4.77625L71.008 5.79305C70.8807 5.83178 70.773 5.92862 70.7436 6.0545L69.7149 9.89897C69.6758 10.0249 69.715 10.1604 69.813 10.2573L72.4284 12.8428L77.8847 7.44897L75.279 4.8634C75.1713 4.78593 75.0341 4.7472 74.897 4.77625Z" fill="#707183"/>
<path d="M85.0168 6.0738L86.0453 9.91827C86.0747 10.0442 86.0355 10.1797 85.9572 10.2862L83.3515 12.8621L77.8952 7.46827L80.5009 4.89238C80.5989 4.79555 80.736 4.76649 80.8634 4.79555L84.7523 5.81235C84.8797 5.8414 84.9776 5.94792 85.0168 6.0738Z" fill="#707183"/>
<path d="M70.734 19.6406L69.7055 15.7962C69.6761 15.6702 69.7153 15.525 69.7936 15.4282L72.4091 12.8426L72.4189 12.8523L77.8752 7.45843L85.9075 15.3991C86.0251 15.5153 86.0741 15.6897 86.0349 15.8349L85.0259 19.5825C84.9867 19.7471 84.8594 19.873 84.6929 19.9117L80.9019 20.9092C80.7451 20.9576 80.5688 20.9092 80.4513 20.7929L77.8749 18.2462L77.8654 18.2364L75.2597 20.8221C75.1617 20.9189 75.0246 20.9479 74.8972 20.9189L70.9985 19.9021C70.8711 19.8731 70.7732 19.7665 70.734 19.6406Z" fill="#707183"/>
<path d="M54.6884 17.0164C55.5015 16.048 56.5692 15.5445 58.1855 15.5445C60.8598 15.5445 62.525 16.6388 62.525 19.2727C62.525 19.447 62.3781 19.6407 62.1725 19.6407H60.4287C60.2525 19.6407 60.0663 19.4955 60.0565 19.2824C60.0075 18.498 59.8116 17.4812 58.5872 17.4812C57.4997 17.4812 56.9806 18.4787 56.9806 19.4858V21.5484C56.9806 21.6937 57.0981 21.8099 57.2451 21.8099H60.1838C60.5071 21.8099 60.6737 22.1682 60.4875 22.4102C60.2034 22.7686 59.6745 23.4561 59.41 23.8047C59.3414 23.9016 59.2239 23.95 59.1162 23.95H57.2941C57.1471 23.95 57.0296 24.0662 57.0296 24.2114V33.5079C57.0296 33.6532 57.1471 33.7694 57.2941 33.7694H58.3129C58.5186 33.7694 58.6851 33.934 58.6851 34.1374V35.5124C58.6851 35.7158 58.5186 35.8804 58.3129 35.8804H52.3961C52.0729 35.8804 51.9064 35.5221 52.1023 35.28C52.4157 34.883 53.0427 34.0986 53.3659 33.7015C53.4149 33.6434 53.4345 33.5563 53.4345 33.4982V24.2018C53.4345 24.0566 53.317 23.9403 53.1701 23.9403H51.4362C51.3676 23.9403 51.25 23.9791 51.2011 24.0856C50.3783 25.9158 44.246 39.3085 44.246 39.3085C43.3938 41.1871 41.9342 42.0974 40.1709 42.0296C38.7407 41.9715 37.7612 41.1775 37.1538 40.5867C37.0069 40.4415 37.0363 40.1993 37.144 40.0831C37.3431 39.8732 37.6636 39.5434 37.9105 39.2891L37.9112 39.2884L37.9178 39.2817C38.0322 39.1638 38.1303 39.0628 38.1921 38.9986C38.3195 38.8533 38.5547 38.8533 38.6918 38.9598C38.7052 38.9707 38.7195 38.9824 38.7345 38.9948L38.7798 39.0324C39.0695 39.274 39.5871 39.7055 40.2396 39.7055C41.3465 39.7055 41.9244 38.7661 42.4436 37.6816C42.4436 37.6816 43.3938 35.7739 43.4428 35.648C43.4722 35.5609 43.4917 35.464 43.4623 35.3962C43.2959 35.0476 38.1139 24.0759 38.1139 24.0759C38.0649 23.9791 37.9767 23.9209 37.869 23.9209H36.7914C36.6249 23.9209 36.5171 23.7951 36.4779 23.7273C36.4459 23.6688 36.3935 23.5736 36.3299 23.4584L36.318 23.4367C36.1288 23.0936 35.8503 22.5883 35.7138 22.3328C35.5865 22.1004 35.753 21.7905 36.0469 21.7905H43.2861C43.4917 21.7905 43.6583 21.9551 43.6583 22.1585V23.5529C43.6583 23.7563 43.4917 23.9209 43.2861 23.9209H42.3946C42.1987 23.9209 42.0714 24.1146 42.1498 24.2889C42.1498 24.2889 44.1578 28.8403 44.9807 30.6995C45.0689 30.903 45.3824 30.903 45.4705 30.6995C46.2737 28.8693 48.2722 24.2792 48.2722 24.2792C48.3309 24.1146 48.2133 23.9112 48.0175 23.9112H47.7236C47.5178 23.9112 47.3513 23.7466 47.3513 23.5433V22.1488C47.3513 21.9454 47.5178 21.7809 47.7236 21.7809H53.2092C53.317 21.7809 53.4737 21.684 53.4737 21.5097V20.9964C53.4737 19.0597 53.8753 17.9848 54.6884 17.0164Z" fill="#707183"/>
<path fill-rule="evenodd" clip-rule="evenodd" d="M36.7035 33.7593C35.9101 33.7981 35.528 33.4301 35.528 32.5392V26.1867C35.528 23.3977 33.1672 21.6353 30.5027 21.6353C26.3787 21.6353 24.8896 23.5623 24.7231 25.7315C24.7036 25.9445 24.8799 26.1285 25.1052 26.1285H27.1329C27.3289 26.1285 27.4856 25.9833 27.5052 25.7897C27.613 24.6566 28.377 23.8432 29.6603 23.8432C31.0807 23.8432 31.9329 24.5404 31.9329 26.1576V27.5327H31.1983C28.6709 27.5327 26.9077 27.8522 25.7321 28.5882C24.5567 29.3242 23.9689 30.6509 23.9689 32.2293C23.9689 33.3817 24.3705 34.3404 25.1836 35.0957C25.9868 35.851 26.9273 36.1803 28.1713 36.1803C28.8962 36.1803 29.6113 36.0253 30.3068 35.7058C30.9141 35.425 31.5117 35.0763 32.0994 34.5535C32.2267 34.4373 32.4325 34.4663 32.5206 34.6212C33.1084 35.6187 33.7255 35.9479 34.9402 35.9479C35.8595 35.9479 36.3796 35.2281 36.8027 34.6427C36.88 34.5357 36.9541 34.4332 37.0267 34.3404C37.1933 34.1176 37.0072 33.7496 36.7035 33.7593ZM31.9427 32.7426C31.9427 32.8129 31.8296 32.9233 31.7647 32.9865L31.7468 33.004C31.3746 33.3043 31.0121 33.5366 30.6594 33.6916C30.2676 33.8659 29.8954 33.8949 29.533 33.8949C28.9746 33.8949 28.4162 33.6916 28.044 33.2945C27.6717 32.8975 27.4856 32.3939 27.4856 31.8033C27.4856 30.9704 27.8089 30.4184 28.4358 30.0117C29.0627 29.605 30.0913 29.4017 31.3354 29.4017H31.9427V32.7426Z" fill="#707183"/>
<path d="M6.21876 35.6093L2.33959 24.105C2.30041 23.9985 2.20244 23.921 2.08489 23.921H1.17388C0.96817 23.921 0.801636 23.7563 0.801636 23.553V22.1586C0.801636 21.9551 0.96817 21.7906 1.17388 21.7906H7.07099C7.2767 21.7906 7.44324 21.9551 7.44324 22.1586V23.553C7.44324 23.7563 7.2767 23.921 7.07099 23.921H6.3265C6.14038 23.921 6.01303 24.105 6.0718 24.2793C6.0718 24.2793 7.52156 28.5886 8.06033 30.1864C8.13869 30.4091 8.47176 30.4188 8.55992 30.1864C9.42196 27.9592 11.7436 22.023 11.7436 22.023C11.7925 21.9068 11.9102 21.7809 12.0864 21.7809H13.8399C13.9673 21.7809 14.1142 21.8874 14.1729 22.0326C14.1729 22.0326 17.0432 29.8669 17.1607 30.1767C17.2586 30.4382 17.6015 30.3801 17.67 30.1767C17.7386 29.9734 19.6685 24.26 19.6685 24.26C19.7272 24.0856 19.5998 23.9113 19.4235 23.9113H18.5909C18.3851 23.9113 18.2186 23.7467 18.2186 23.5433V22.1488C18.2186 21.9455 18.3851 21.7809 18.5909 21.7809H23.9492C24.2137 21.7809 24.3802 22.0423 24.3116 22.2457C24.2514 22.4244 24.1779 22.6331 24.1019 22.8487C24.0051 23.1235 23.9042 23.4099 23.8219 23.6595C23.7728 23.7951 23.6455 23.9113 23.4594 23.9113H22.5974C22.4799 23.9113 22.3818 23.9888 22.3427 24.0953L18.3852 35.6093C18.3362 35.7643 18.1892 35.8611 18.0325 35.8611H15.9363C15.7795 35.8611 15.6326 35.7643 15.5836 35.619C15.5836 35.619 12.6057 27.504 12.5076 27.2329C12.4195 26.9907 12.0864 27.0102 11.9983 27.2232C11.8709 27.5524 8.70689 35.6287 8.70689 35.6287C8.64811 35.774 8.51098 35.8708 8.35425 35.8708H6.56159C6.41466 35.8611 6.26774 35.7546 6.21876 35.6093Z" fill="#707183"/>
<path d="M92.1972 21.7805C92.0109 21.6836 91.5411 21.6353 91.139 21.6353C89.5131 21.6353 88.7392 22.1388 87.7105 23.572C87.564 23.7851 87.2209 23.6688 87.2209 23.4074V22.1485C87.2209 21.9451 87.0544 21.7805 86.8487 21.7805H84.1451C84.0471 21.7805 83.9491 21.8193 83.8707 21.9161C83.8707 21.9161 83.0283 22.962 82.7443 23.3203C82.5777 23.5333 82.6757 23.9303 83.0381 23.9303H83.3712C83.5181 23.9303 83.6357 24.0465 83.6357 24.1918V33.4883C83.6357 33.5463 83.6161 33.6335 83.5769 33.6916C83.3124 34.0111 82.6365 34.8536 82.3034 35.27C82.1075 35.5121 82.2838 35.8705 82.5875 35.8705H88.4064C88.6118 35.8705 88.7782 35.7058 88.7782 35.5025V34.1273C88.7782 33.924 88.6118 33.7593 88.4064 33.7593H87.4851C87.3385 33.7593 87.2209 33.6431 87.2209 33.4979V26.545C87.2209 26.4965 87.2406 26.4094 87.2602 26.3803C87.8968 25.1989 89.3268 24.3855 90.385 24.3855C91.1147 24.3855 91.464 24.4764 91.8349 24.5731C91.9173 24.5945 92.0005 24.6162 92.0897 24.6372C92.2951 24.6857 92.4615 24.4726 92.4615 24.2693V22.1679C92.452 21.9742 92.3246 21.8483 92.1972 21.7805Z" fill="#707183"/>
<path d="M79.9325 33.7403H80.8532C81.1765 33.7403 81.3528 34.0986 81.1177 34.3504C80.9757 34.5248 80.77 34.7814 80.5643 35.038C80.3585 35.2946 80.1529 35.5512 80.0108 35.7255C79.952 35.803 79.8541 35.8417 79.7464 35.8417L77.8362 35.832H76.0533L75.0248 35.8417C74.7113 35.8417 74.5252 35.4931 74.7406 35.2316C74.9975 34.9161 75.4522 34.35 75.7806 33.9413L75.7818 33.9398L76.0043 33.6629C76.0338 33.6435 76.0729 33.5466 76.0729 33.4595V24.1728C76.0729 24.0468 75.9553 23.9113 75.8084 23.9113H75.4558C75.1521 23.9113 74.9757 23.553 75.1717 23.3109C75.4557 22.972 76.1513 22.1004 76.2884 21.9261C76.3667 21.8293 76.4843 21.7809 76.5921 21.7809H79.2859C79.4916 21.7809 79.668 21.9455 79.668 22.1488V33.4789C79.668 33.6241 79.7856 33.7403 79.9325 33.7403Z" fill="#707183"/>
<path fill-rule="evenodd" clip-rule="evenodd" d="M73.2516 33.7593C72.4582 33.7981 72.0761 33.4301 72.0761 32.5392V26.1867C72.0761 23.3977 69.7153 21.6353 67.0508 21.6353C62.9268 21.6353 61.4378 23.5623 61.2713 25.7315C61.2517 25.9445 61.428 26.1285 61.6533 26.1285H63.681C63.877 26.1285 64.0338 25.9833 64.0534 25.7897C64.1611 24.6566 64.9251 23.8432 66.2084 23.8432C67.6288 23.8432 68.4811 24.5404 68.4811 26.1576V27.5327H67.7464C65.219 27.5327 63.4558 27.8522 62.2802 28.5882C61.1048 29.3242 60.517 30.6509 60.517 32.2293C60.517 33.3817 60.9186 34.3404 61.7317 35.0957C62.535 35.851 63.4754 36.1803 64.7195 36.1803C65.4443 36.1803 66.1594 36.0253 66.8549 35.7058C67.4623 35.425 68.0598 35.0763 68.6475 34.5535C68.7749 34.4373 68.9806 34.4663 69.0687 34.6212C69.6565 35.6187 70.2737 35.9479 71.4883 35.9479C72.4076 35.9479 72.9278 35.2281 73.3508 34.6427C73.4281 34.5357 73.5022 34.4332 73.5748 34.3404C73.7512 34.1176 73.5553 33.7496 73.2516 33.7593ZM68.4908 32.7426C68.4908 32.8129 68.3777 32.9233 68.3128 32.9865L68.2949 33.004C67.9227 33.3043 67.5602 33.5366 67.2076 33.6916C66.8158 33.8659 66.4435 33.8949 66.0811 33.8949C65.5227 33.8949 64.9643 33.6916 64.5921 33.2945C64.2198 32.8975 64.0337 32.3939 64.0337 31.8033C64.0337 30.9704 64.357 30.4184 64.9839 30.0117C65.6108 29.605 66.6394 29.4017 67.8835 29.4017H68.4908V32.7426Z" fill="#707183"/>
<path fill-rule="evenodd" clip-rule="evenodd" d="M95.341 23.7949H95.5464L95.2136 23.3398C95.4485 23.3204 95.5369 23.1461 95.5369 22.9621C95.5369 22.7684 95.4389 22.5747 95.1746 22.5747H94.6945V23.7949H94.8609V23.3398H95.0177L95.341 23.7949ZM94.8713 23.1849V22.7297H95.1746C95.3115 22.7297 95.3705 22.8459 95.3705 22.9621C95.3705 23.0687 95.3115 23.1849 95.1651 23.1849H94.8713Z" fill="#707183"/>
<path fill-rule="evenodd" clip-rule="evenodd" d="M95.0673 22.1296C94.4797 22.1296 93.9996 22.6041 93.9996 23.1851C93.9996 23.7661 94.4797 24.2406 95.0673 24.2406C95.6549 24.2406 96.1351 23.7661 96.1351 23.1851C96.1446 22.6041 95.6645 22.1296 95.0673 22.1296ZM95.0673 22.2845C95.5665 22.2845 95.9782 22.6912 95.9782 23.1851C95.9782 23.679 95.5665 24.0857 95.0673 24.0857C94.5673 24.0857 94.1565 23.679 94.1565 23.1851C94.1565 22.6912 94.5673 22.2845 95.0673 22.2845Z" fill="#707183"/>
</g>
<defs>
<clipPath id="clip0_1290_28551">
<rect width="95.3333" height="52" fill="white" transform="translate(0.800781)"/>
</clipPath>
</defs>
</svg>
