<svg width="109" height="52" viewBox="0 0 109 52" fill="none" xmlns="http://www.w3.org/2000/svg">
<g clip-path="url(#clip0_1290_28520)">
<path d="M72.0325 33.5019C73.4882 33.5578 74.8321 32.9801 75.8678 32.0015L77.7902 34.0797C76.2878 35.636 74.1881 36.4654 72.0325 36.3628C67.3666 36.3628 64.3617 33.2503 64.3617 29.0474C64.3617 24.9005 67.5252 21.732 71.6219 21.732C76.2878 21.732 78.882 25.2639 78.6768 30.1844H67.7305C68.0944 32.2066 69.5409 33.5019 72.0325 33.5019ZM75.3546 27.8452C75.0467 25.9256 73.8988 24.5277 71.6686 24.5277C69.5409 24.5277 68.0944 25.7205 67.7305 27.8452H75.3546ZM0 33.3435L8.45465 24.7793H0.2053V22.0861H12.3367V24.8352L3.93804 33.446H12.4953V36.0926H0V33.3435ZM21.9391 33.5019C23.3949 33.5578 24.7387 32.9801 25.7746 32.0015L27.6969 34.0797C26.2131 35.6266 24.1322 36.456 21.9951 36.3628C17.3293 36.3628 14.3244 33.2503 14.3244 29.0474C14.3244 24.9005 17.4879 21.732 21.5845 21.732C26.2505 21.732 28.8447 25.2639 28.6394 30.1844H17.6278C18.0478 32.2066 19.4476 33.5019 21.9391 33.5019ZM25.308 27.8452C25 25.9256 23.8522 24.5277 21.6219 24.5277C19.4942 24.5277 18.0478 25.7205 17.6838 27.8452H25.308ZM46.8272 29.0381C46.8272 24.5743 50.1959 21.7786 53.8821 21.7786C55.7484 21.7786 57.5122 22.608 58.548 23.9033V15.6001H61.5528V36.0926H58.548V34.1728C57.3908 35.5801 55.6551 36.4001 53.8261 36.4001C51.9223 36.3628 50.1027 35.5614 48.7962 34.1728C47.4804 32.7936 46.7712 30.9485 46.8272 29.0381ZM58.7066 29.0381C58.716 27.4446 57.8761 25.9628 56.495 25.1614C55.1138 24.3599 53.4154 24.3507 52.0343 25.1334C50.6532 25.9162 49.7947 27.3887 49.7854 28.9822C49.7854 31.5262 51.7078 33.5485 54.246 33.5485C56.8402 33.6044 58.7066 31.5822 58.7066 29.0381ZM80.6364 33.0825L83.3334 31.6846C84.0612 32.9801 85.461 33.7628 86.9076 33.7069C88.6149 33.7069 89.4461 32.8216 89.4461 31.8431C89.4461 30.7062 87.841 30.4919 86.0209 30.1284C83.6319 29.6066 81.1497 28.8331 81.1497 25.9256C81.1497 23.6983 83.2773 21.6668 86.5995 21.6668C89.1939 21.6668 91.1629 22.7012 92.2549 24.3599L89.7633 25.7112C89.063 24.6582 87.8592 24.0524 86.5995 24.099C84.9944 24.099 84.1639 24.8818 84.1639 25.7578C84.1639 26.7456 85.461 27.0532 87.4857 27.4725C89.7719 27.9944 92.4135 28.7213 92.4135 31.6754C92.4135 33.595 90.7053 36.2417 86.7117 36.1858C83.8559 36.3535 81.7842 35.1607 80.6364 33.0825ZM100.607 29.8675L98.2176 32.4116V36.0926H95.2129V15.6001H98.2176V28.9822L104.544 22.0302H108.175L102.678 28.0503L108.333 36.0926H104.965L100.607 29.8675ZM37.8033 21.7786C34.2759 21.7786 31.271 24.0617 31.271 27.9011V36.1019H34.3319V28.2646C34.3319 25.9815 35.6289 24.5836 37.9059 24.5836C40.1363 24.5836 41.2747 25.9815 41.2747 28.2646V36.1019H44.3355V27.9011C44.3355 24.0524 41.3867 21.7786 37.8033 21.7786Z" fill="#707183"/>
</g>
<defs>
<clipPath id="clip0_1290_28520">
<rect width="108.333" height="52" fill="white"/>
</clipPath>
</defs>
</svg>
